<?xml version="1.0" encoding="UTF-8"?>
<svg width="55px" height="48px" viewBox="0 0 55 48" version="1.1" xmlns="http://www.w3.org/2000/svg" xmlns:xlink="http://www.w3.org/1999/xlink">
    <!-- Generator: Sketch 42 (36781) - http://www.bohemiancoding.com/sketch -->
    <title>logo</title>
    <desc>Created with Sketch.</desc>
    <defs>
        <polygon id="path-1" points="48.0135557 47.9687703 0.0998254094 47.9687703 0.0998254094 7.49512037e-05 48.0135557 7.49512037e-05"></polygon>
    </defs>
    <g id="Page-1" stroke="none" stroke-width="1" fill="none" fill-rule="evenodd">
        <g id="Desktop-HD" transform="translate(-768.000000, -72.000000)">
            <g id="Group-5" transform="translate(720.000000, 0.000000)">
                <g id="logo" transform="translate(48.000000, 72.000000)">
                    <g id="Group-3" transform="translate(6.288686, 0.000000)">
                        <mask id="mask-2" fill="white">
                            <use xlink:href="#path-1"></use>
                        </mask>
                        <g id="Clip-2"></g>
                        <path d="M48.01153,24.2998548 C47.8423344,37.481523 36.8673789,47.9688453 23.6999177,47.9688453 L4.09269206,47.9688453 C1.88745937,47.9688453 0.0998254094,46.1790105 0.0998254094,43.9713978 L0.0998254094,3.99737254 C0.0998254094,1.78960989 1.88745937,7.49512037e-05 4.09269206,7.49512037e-05 L24.0567258,7.49512037e-05 C37.3938318,7.49512037e-05 48.1834208,10.9078735 48.01153,24.2998548" id="Fill-1" fill="#20347F" mask="url(#mask-2)"></path>
                    </g>
                    <path d="M46.3046907,41.7368476 C41.9684917,45.6184205 36.2267714,47.9687404 29.9900415,47.9687404 L14.486034,47.9687404 L1.9324684,35.4009225 C2.53139091,35.768783 22.5753808,18.0841964 20.4752591,15.8816804 L46.3046907,41.7368476 Z" id="Fill-4" fill="#18275D"></path>
                    <path d="M23.7532668,24.3960322 C23.5896112,30.7719812 17.9796538,35.9765927 11.611161,35.9765927 L3.99286665,35.9765927 C3.23822428,35.9765927 2.53149572,35.7686781 1.93257321,35.4009675 C1.92853048,35.4009675 1.92448776,35.4009675 1.92448776,35.3969201 C0.77066354,34.6974755 0,33.4261532 0,31.9791452 L0,16.189475 C0,13.9829115 1.78883181,12.1920275 3.99286665,12.1920275 L11.8785799,12.1920275 C15.0569119,12.1920275 17.9437184,13.4432629 20.0758826,15.4819356 L20.4752141,15.8817253 C22.5753359,18.0842414 23.8371159,21.0942817 23.7532668,24.3960322" id="Fill-6" fill="#20347F"></path>
                </g>
            </g>
        </g>
    </g>
</svg>