<svg xmlns="http://www.w3.org/2000/svg" width="199" height="272" viewBox="0 0 199 272" xmlns:xlink="http://www.w3.org/1999/xlink">
  <defs>
    <polygon id="a" points="145.624 144.906 .303 144.906 .303 0 145.624 0"/>
  </defs>
  <g fill="none" fill-rule="evenodd">
    <g transform="translate(19.073)">
      <mask id="b" fill="white">
        <use xlink:href="#a"/>
      </mask>
      <path fill="#304FFE" d="M145.617388,73.4058113 C145.104223,113.225434 111.817545,144.905887 71.8810692,144.905887 L12.4130001,144.905887 C5.72460205,144.905887 0.302767176,139.499094 0.302767176,132.830264 L0.302767176,12.0753962 C0.302767176,5.40611321 5.72460205,0.000226415094 12.4130001,0.000226415094 L72.9632564,0.000226415094 C113.414259,0.000226415094 146.138727,32.9508679 145.617388,73.4058113" mask="url(#b)"/>
    </g>
    <path fill="#1F347F" d="M140.4406,126.08006 C127.289052,137.805645 109.874603,144.90557 90.9588072,144.90557 L43.9356634,144.90557 L5.86111295,106.940287 C7.67762518,108.051532 68.4703858,54.6293434 62.1007857,47.9759094 L140.4406,126.08006 Z"/>
    <path fill="#304FFE" d="M72.042875,73.6963472 C71.5465131,92.9570264 54.5316971,108.679291 35.2162685,108.679291 L12.1102329,108.679291 C9.8214275,108.679291 7.67794307,108.051215 5.86143084,106.940423 C5.84916938,106.940423 5.83690792,106.940423 5.83690792,106.928196 C2.33739711,104.815291 0,100.974838 0,96.6036679 L0,48.9057057 C0,42.2400453 5.4254679,36.830083 12.1102329,36.830083 L36.0273412,36.830083 C45.6671175,36.830083 54.4227064,40.6098566 60.8894899,46.7683472 L62.1006495,47.9760453 C68.4702496,54.6294792 72.2971867,63.7223094 72.042875,73.6963472"/>
    <path fill="#20347F" d="M21.5401658,183.377358 L21.5401658,159.339623 L28.9363922,159.339623 C30.5543248,159.339623 32.0374075,159.617529 33.3856847,160.173349 C34.7339619,160.729169 35.8896107,161.510608 36.8526658,162.517689 C37.8157209,163.524769 38.5668927,164.732697 39.1062035,166.141509 C39.6455144,167.550322 39.9151658,169.113199 39.9151658,170.830189 L39.9151658,171.919811 C39.9151658,173.636801 39.648266,175.196927 39.1144583,176.600236 C38.5806506,178.003545 37.8267273,179.208721 36.8526658,180.215802 C35.8786043,181.222882 34.7147009,182.00157 33.3609205,182.551887 C32.0071402,183.102204 30.5158029,183.377358 28.8868639,183.377358 L21.5401658,183.377358 Z M26.492996,163.351415 L26.492996,179.398585 L28.8868639,179.398585 C30.8459932,179.398585 32.3373305,178.751972 33.3609205,177.458726 C34.3845105,176.165481 34.8962979,174.319194 34.8962979,171.919811 L34.8962979,170.79717 C34.8962979,168.353761 34.3900136,166.501972 33.37743,165.241745 C32.3648463,163.981519 30.8845152,163.351415 28.9363922,163.351415 L26.492996,163.351415 Z M48.7807318,183.377358 L43.8279017,183.377358 L43.8279017,159.339623 L48.7807318,159.339623 L48.7807318,183.377358 Z M72.3892224,180.339623 C72.1030575,180.680819 71.7123381,181.046775 71.2170526,181.4375 C70.7217671,181.828225 70.099918,182.191429 69.3514866,182.527123 C68.6030551,182.862816 67.7198093,183.143474 66.7017224,183.369104 C65.6836356,183.594734 64.514229,183.707547 63.1934677,183.707547 C61.6415731,183.707547 60.2245276,183.451654 58.9422885,182.939858 C57.6600493,182.428063 56.562183,181.676892 55.6486564,180.686321 C54.7351298,179.69575 54.0279828,178.479567 53.5271941,177.037736 C53.0264054,175.595905 52.7760149,173.944978 52.7760149,172.084906 L52.7760149,170.665094 C52.7760149,168.805022 53.0153993,167.151344 53.4941752,165.704009 C53.9729512,164.256675 54.6498312,163.037741 55.5248356,162.04717 C56.39984,161.056599 57.4591847,160.302676 58.7029017,159.785377 C59.9466186,159.268079 61.3278941,159.009434 62.8467696,159.009434 C64.4096705,159.009434 65.760679,159.204794 66.8998356,159.595519 C68.0389923,159.986244 68.9910268,160.533802 69.7559677,161.238208 C70.5209086,161.942614 71.1179939,162.784586 71.5472413,163.764151 C71.9764887,164.743716 72.2571463,165.816818 72.3892224,166.983491 L67.5684677,166.983491 C67.4694106,166.378142 67.3153241,165.830584 67.1062035,165.340802 C66.897083,164.85102 66.6109223,164.432785 66.247713,164.086085 C65.8845036,163.739385 65.4360018,163.472485 64.9021941,163.285377 C64.3683864,163.09827 63.7327796,163.004717 62.9953545,163.004717 C61.3003775,163.004717 60.0126545,163.645827 59.1321469,164.928066 C58.2516394,166.210305 57.8113922,168.111623 57.8113922,170.632075 L57.8113922,172.084906 C57.8113922,174.605359 58.290161,176.509428 59.247713,177.79717 C60.2052649,179.084912 61.6085528,179.728774 63.4576186,179.728774 C64.0519612,179.728774 64.5692517,179.690252 65.0095054,179.613208 C65.4497592,179.536163 65.8267208,179.439859 66.1404017,179.324292 C66.4540825,179.208726 66.7154792,179.082155 66.9245998,178.944575 C67.1337203,178.806996 67.3043161,178.67217 67.4363922,178.540094 L67.4363922,174.396226 L62.9293168,174.396226 L62.9293168,170.747642 L72.3892224,170.747642 L72.3892224,180.339623 Z M81.6675243,183.377358 L76.7146941,183.377358 L76.7146941,159.339623 L81.6675243,159.339623 L81.6675243,183.377358 Z M103.872713,163.351415 L96.5095054,163.351415 L96.5095054,183.377358 L91.5566752,183.377358 L91.5566752,163.351415 L84.2925243,163.351415 L84.2925243,159.339623 L103.872713,159.339623 L103.872713,163.351415 Z M118.285449,178.424528 L109.601487,178.424528 L107.950543,183.377358 L102.684034,183.377358 L111.632147,159.339623 L116.22177,159.339623 L125.219411,183.377358 L119.952902,183.377358 L118.285449,178.424528 Z M110.938751,174.412736 L116.948185,174.412736 L113.926958,165.415094 L110.938751,174.412736 Z M132.417524,179.398585 L142.934034,179.398585 L142.934034,183.377358 L127.464694,183.377358 L127.464694,159.339623 L132.417524,159.339623 L132.417524,179.398585 Z M21.5401658,217.188679 L21.5401658,193.150943 L28.9363922,193.150943 C30.5543248,193.150943 32.0374075,193.428849 33.3856847,193.98467 C34.7339619,194.54049 35.8896107,195.321929 36.8526658,196.329009 C37.8157209,197.33609 38.5668927,198.544018 39.1062035,199.95283 C39.6455144,201.361642 39.9151658,202.92452 39.9151658,204.641509 L39.9151658,205.731132 C39.9151658,207.448122 39.648266,209.008248 39.1144583,210.411557 C38.5806506,211.814866 37.8267273,213.020042 36.8526658,214.027123 C35.8786043,215.034203 34.7147009,215.81289 33.3609205,216.363208 C32.0071402,216.913525 30.5158029,217.188679 28.8868639,217.188679 L21.5401658,217.188679 Z M26.492996,197.162736 L26.492996,213.209906 L28.8868639,213.209906 C30.8459932,213.209906 32.3373305,212.563293 33.3609205,211.270047 C34.3845105,209.976802 34.8962979,208.130515 34.8962979,205.731132 L34.8962979,204.608491 C34.8962979,202.165082 34.3900136,200.313292 33.37743,199.053066 C32.3648463,197.79284 30.8845152,197.162736 28.9363922,197.162736 L26.492996,197.162736 Z M57.9764866,206.771226 L48.4670526,206.771226 L48.4670526,213.209906 L59.62743,213.209906 L59.62743,217.188679 L43.5142224,217.188679 L43.5142224,193.150943 L59.5944111,193.150943 L59.5944111,197.162736 L48.4670526,197.162736 L48.4670526,202.891509 L57.9764866,202.891509 L57.9764866,206.771226 Z M74.997713,210.882075 C74.997713,210.463834 74.937179,210.086873 74.8161092,209.751179 C74.6950394,209.415486 74.4611581,209.104561 74.1144583,208.818396 C73.7677584,208.532231 73.2889896,208.251574 72.6781375,207.976415 C72.0672854,207.701256 71.277592,207.409593 70.3090337,207.101415 C69.2083993,206.749212 68.1710669,206.35299 67.1970054,205.912736 C66.222944,205.472482 65.3699651,204.95244 64.6380432,204.352594 C63.9061213,203.752749 63.3282969,203.062111 62.9045526,202.28066 C62.4808083,201.49921 62.2689394,200.585697 62.2689394,199.540094 C62.2689394,198.538517 62.4863114,197.622253 62.921062,196.791274 C63.3558126,195.960295 63.9666556,195.253148 64.7536092,194.669811 C65.5405628,194.086475 66.4760881,193.63247 67.560213,193.307783 C68.6443379,192.983096 69.8357568,192.820755 71.1345054,192.820755 C72.4662731,192.820755 73.6769528,193.005108 74.7665809,193.373821 C75.856209,193.742533 76.7862311,194.257072 77.5566752,194.917453 C78.3271193,195.577833 78.921453,196.362024 79.3396941,197.270047 C79.7579352,198.178071 79.9670526,199.171378 79.9670526,200.25 L75.0142224,200.25 C75.0142224,199.743708 74.9344276,199.275946 74.7748356,198.846698 C74.6152436,198.417451 74.3703561,198.048744 74.0401658,197.740566 C73.7099755,197.432388 73.2972438,197.193004 72.8019583,197.022406 C72.3066728,196.851807 71.7233453,196.766509 71.0519583,196.766509 C70.4025839,196.766509 69.8385173,196.83805 69.3597413,196.981132 C68.8809653,197.124215 68.4847428,197.322326 68.171062,197.575472 C67.8573812,197.828618 67.6207484,198.125784 67.4611564,198.466981 C67.3015644,198.808178 67.2217696,199.171382 67.2217696,199.556604 C67.2217696,200.349061 67.6262467,201.012183 68.435213,201.545991 C69.2441793,202.079798 70.4300951,202.577828 71.992996,203.040094 C73.302751,203.447329 74.4556483,203.898582 75.4517224,204.393868 C76.4477966,204.889153 77.2787631,205.450469 77.9446469,206.07783 C78.6105308,206.705192 79.1140635,207.409587 79.4552601,208.191038 C79.7964568,208.972488 79.9670526,209.858486 79.9670526,210.849057 C79.9670526,211.905666 79.7606867,212.846694 79.3479488,213.67217 C78.9352109,214.497646 78.3491319,215.193786 77.5896941,215.760613 C76.8302564,216.32744 75.9139919,216.762184 74.8408734,217.064858 C73.7677548,217.367533 72.5708328,217.518868 71.2500715,217.518868 C70.4576147,217.518868 69.6651698,217.450079 68.872713,217.3125 C68.0802562,217.174921 67.3235814,216.963052 66.6026658,216.676887 C65.8817503,216.390722 65.2131249,216.033021 64.5967696,215.603774 C63.9804143,215.174526 63.4438631,214.668242 62.9870998,214.084906 C62.5303365,213.501569 62.1726357,212.838447 61.9139866,212.095519 C61.6553375,211.352591 61.5260149,210.529879 61.5260149,209.627358 L66.4953545,209.627358 C66.4953545,210.353777 66.6109194,210.970123 66.8420526,211.476415 C67.0731858,211.982707 67.3951166,212.392687 67.8078545,212.706368 C68.2205924,213.020049 68.718622,213.248427 69.3019583,213.391509 C69.8852945,213.534592 70.5346591,213.606132 71.2500715,213.606132 C71.8884394,213.606132 72.4442515,213.537343 72.9175243,213.399764 C73.3907971,213.262185 73.7815165,213.072328 74.0896941,212.830189 C74.3978718,212.588049 74.62625,212.299137 74.7748356,211.963443 C74.9234213,211.62775 74.997713,211.267298 74.997713,210.882075 Z M88.5849771,217.188679 L83.6321469,217.188679 L83.6321469,193.150943 L88.5849771,193.150943 L88.5849771,217.188679 Z M112.193468,214.150943 C111.907303,214.49214 111.516583,214.858096 111.021298,215.248821 C110.526012,215.639546 109.904163,216.00275 109.155732,216.338443 C108.4073,216.674137 107.524055,216.954794 106.505968,217.180425 C105.487881,217.406055 104.318474,217.518868 102.997713,217.518868 C101.445818,217.518868 100.028773,217.262974 98.7465337,216.751179 C97.4642946,216.239384 96.3664282,215.488212 95.4529017,214.497642 C94.5393751,213.507071 93.8322281,212.290888 93.3314394,210.849057 C92.8306507,209.407225 92.5802601,207.756299 92.5802601,205.896226 L92.5802601,204.476415 C92.5802601,202.616343 92.8196445,200.962664 93.2984205,199.51533 C93.7771965,198.067996 94.4540765,196.849062 95.3290809,195.858491 C96.2040853,194.86792 97.26343,194.113996 98.5071469,193.596698 C99.7508639,193.0794 101.132139,192.820755 102.651015,192.820755 C104.213916,192.820755 105.564924,193.016114 106.704081,193.40684 C107.843238,193.797565 108.795272,194.345122 109.560213,195.049528 C110.325154,195.753934 110.922239,196.595907 111.351487,197.575472 C111.780734,198.555036 112.061392,199.628139 112.193468,200.794811 L107.372713,200.794811 C107.273656,200.189462 107.119569,199.641905 106.910449,199.152123 C106.701328,198.66234 106.415168,198.244106 106.051958,197.897406 C105.688749,197.550706 105.240247,197.283806 104.706439,197.096698 C104.172632,196.90959 103.537025,196.816038 102.7996,196.816038 C101.104623,196.816038 99.8168998,197.457148 98.9363922,198.739387 C98.0558847,200.021626 97.6156375,201.922943 97.6156375,204.443396 L97.6156375,205.896226 C97.6156375,208.416679 98.0944063,210.320748 99.0519583,211.608491 C100.00951,212.896233 101.412798,213.540094 103.261864,213.540094 C103.856207,213.540094 104.373497,213.501573 104.813751,213.424528 C105.254004,213.347484 105.630966,213.25118 105.944647,213.135613 C106.258328,213.020047 106.519725,212.893476 106.728845,212.755896 C106.937966,212.618317 107.108561,212.483491 107.240638,212.351415 L107.240638,208.207547 L102.733562,208.207547 L102.733562,204.558962 L112.193468,204.558962 L112.193468,214.150943 Z M135.75243,217.188679 L130.7996,217.188679 L121.15809,201.372642 L121.15809,217.188679 L116.20526,217.188679 L116.20526,193.150943 L121.15809,193.150943 L130.816109,209 L130.816109,193.150943 L135.75243,193.150943 L135.75243,217.188679 Z M154.540166,206.771226 L145.030732,206.771226 L145.030732,213.209906 L156.191109,213.209906 L156.191109,217.188679 L140.077902,217.188679 L140.077902,193.150943 L156.15809,193.150943 L156.15809,197.162736 L145.030732,197.162736 L145.030732,202.891509 L154.540166,202.891509 L154.540166,206.771226 Z M167.995354,208.389151 L164.0496,208.389151 L164.0496,217.188679 L159.09677,217.188679 L159.09677,193.150943 L168.028373,193.150943 C169.415173,193.150943 170.658871,193.307781 171.759505,193.621462 C172.86014,193.935143 173.790162,194.397403 174.5496,195.008255 C175.309038,195.619107 175.892365,196.375782 176.2996,197.278302 C176.706835,198.180822 176.910449,199.226409 176.910449,200.415094 C176.910449,201.295602 176.811393,202.085295 176.613279,202.784198 C176.415165,203.483101 176.129004,204.10495 175.754788,204.649764 C175.380573,205.194578 174.929319,205.670595 174.401015,206.07783 C173.87271,206.485065 173.278377,206.837263 172.617996,207.134434 L177.818468,216.957547 L177.818468,217.188679 L172.50243,217.188679 L167.995354,208.389151 Z M164.0496,204.377358 L168.044883,204.377358 C168.694257,204.377358 169.263827,204.292061 169.753609,204.121462 C170.243392,203.950864 170.65062,203.708728 170.975307,203.395047 C171.299994,203.081366 171.544882,202.707156 171.709977,202.272406 C171.875072,201.837655 171.957619,201.350632 171.957619,200.811321 C171.957619,199.677667 171.635688,198.786167 170.991817,198.136792 C170.347946,197.487418 169.360141,197.162736 168.028373,197.162736 L164.0496,197.162736 L164.0496,204.377358 Z M193.139222,210.882075 C193.139222,210.463834 193.078688,210.086873 192.957619,209.751179 C192.836549,209.415486 192.602668,209.104561 192.255968,208.818396 C191.909268,208.532231 191.430499,208.251574 190.819647,207.976415 C190.208795,207.701256 189.419101,207.409593 188.450543,207.101415 C187.349909,206.749212 186.312576,206.35299 185.338515,205.912736 C184.364453,205.472482 183.511475,204.95244 182.779553,204.352594 C182.047631,203.752749 181.469806,203.062111 181.046062,202.28066 C180.622318,201.49921 180.410449,200.585697 180.410449,199.540094 C180.410449,198.538517 180.627821,197.622253 181.062571,196.791274 C181.497322,195.960295 182.108165,195.253148 182.895119,194.669811 C183.682072,194.086475 184.617597,193.63247 185.701722,193.307783 C186.785847,192.983096 187.977266,192.820755 189.276015,192.820755 C190.607783,192.820755 191.818462,193.005108 192.90809,193.373821 C193.997718,193.742533 194.927741,194.257072 195.698185,194.917453 C196.468629,195.577833 197.062962,196.362024 197.481204,197.270047 C197.899445,198.178071 198.108562,199.171378 198.108562,200.25 L193.155732,200.25 C193.155732,199.743708 193.075937,199.275946 192.916345,198.846698 C192.756753,198.417451 192.511866,198.048744 192.181675,197.740566 C191.851485,197.432388 191.438753,197.193004 190.943468,197.022406 C190.448182,196.851807 189.864855,196.766509 189.193468,196.766509 C188.544093,196.766509 187.980027,196.83805 187.501251,196.981132 C187.022475,197.124215 186.626252,197.322326 186.312571,197.575472 C185.998891,197.828618 185.762258,198.125784 185.602666,198.466981 C185.443074,198.808178 185.363279,199.171382 185.363279,199.556604 C185.363279,200.349061 185.767756,201.012183 186.576722,201.545991 C187.385689,202.079798 188.571605,202.577828 190.134505,203.040094 C191.44426,203.447329 192.597158,203.898582 193.593232,204.393868 C194.589306,204.889153 195.420273,205.450469 196.086156,206.07783 C196.75204,206.705192 197.255573,207.409587 197.59677,208.191038 C197.937966,208.972488 198.108562,209.858486 198.108562,210.849057 C198.108562,211.905666 197.902196,212.846694 197.489458,213.67217 C197.07672,214.497646 196.490641,215.193786 195.731204,215.760613 C194.971766,216.32744 194.055501,216.762184 192.982383,217.064858 C191.909264,217.367533 190.712342,217.518868 189.391581,217.518868 C188.599124,217.518868 187.806679,217.450079 187.014222,217.3125 C186.221766,217.174921 185.465091,216.963052 184.744175,216.676887 C184.02326,216.390722 183.354634,216.033021 182.738279,215.603774 C182.121924,215.174526 181.585372,214.668242 181.128609,214.084906 C180.671846,213.501569 180.314145,212.838447 180.055496,212.095519 C179.796847,211.352591 179.667524,210.529879 179.667524,209.627358 L184.636864,209.627358 C184.636864,210.353777 184.752429,210.970123 184.983562,211.476415 C185.214695,211.982707 185.536626,212.392687 185.949364,212.706368 C186.362102,213.020049 186.860131,213.248427 187.443468,213.391509 C188.026804,213.534592 188.676169,213.606132 189.391581,213.606132 C190.029949,213.606132 190.585761,213.537343 191.059034,213.399764 C191.532307,213.262185 191.923026,213.072328 192.231204,212.830189 C192.539381,212.588049 192.767759,212.299137 192.916345,211.963443 C193.064931,211.62775 193.139222,211.267298 193.139222,210.882075 Z"/>
    <rect width="96" height="8" x="20" y="264" fill="#20347F"/>
    <g fill="#304FFE" transform="translate(20 226)">
      <polygon points="93.349 25 88.396 25 78.755 9.184 78.755 25 73.802 25 73.802 .962 78.755 .962 88.413 16.811 88.413 .962 93.349 .962"/>
      <polygon points="69.212 25 64.26 25 64.26 .962 69.212 .962"/>
      <path d="M54.7665809 20.0471698L46.0826186 20.0471698 44.4316752 25 39.1651658 25 48.113279.962264151 52.7029017.962264151 61.7005432 25 56.4340337 25 54.7665809 20.0471698zM47.4198828 16.0353774L53.4293168 16.0353774 50.4080903 7.03773585 47.4198828 16.0353774zM27.2783734 16.5306604L27.2783734 25 22.3255432 25 22.3255432.962264151 31.7029017.962264151C33.1227201.962264151 34.3911822 1.16037538 35.5083262 1.55660377 36.6254701 1.95283217 37.5720016 2.50589268 38.3479488 3.21580189 39.1238961 3.9257111 39.7154782 4.76768381 40.122713 5.74174528 40.5299477 6.71580676 40.733562 7.77515151 40.733562 8.91981132 40.733562 10.0864838 40.5299477 11.1375739 40.122713 12.0731132 39.7154782 13.0086525 39.1238961 13.8066005 38.3479488 14.4669811 37.5720016 15.1273618 36.6254701 15.6363976 35.5083262 15.9941038 34.3911822 16.35181 33.1227201 16.5306604 31.7029017 16.5306604L27.2783734 16.5306604zM27.2783734 12.5188679L31.7029017 12.5188679C32.4073077 12.5188679 33.0153991 12.4308185 33.5271941 12.254717 34.0389891 12.0786155 34.4572239 11.833728 34.7819111 11.5200472 35.1065983 11.2063664 35.3459826 10.8294047 35.5000715 10.3891509 35.6541603 9.94889717 35.7312035 9.47012837 35.7312035 8.95283019 35.7312035 8.435532 35.6541603 7.93750239 35.5000715 7.45872642 35.3459826 6.97995044 35.1065983 6.55621254 34.7819111 6.1875 34.4572239 5.81878746 34.0389891 5.52437217 33.5271941 5.30424528 33.0153991 5.0841184 32.4073077 4.9740566 31.7029017 4.9740566L27.2783734 4.9740566 27.2783734 12.5188679zM14.0047885 18.6933962C14.0047885 18.2751551 13.9442545 17.8981935 13.8231847 17.5625 13.7021149 17.2268065 13.4682336 16.9158819 13.1215337 16.629717 12.7748339 16.343552 12.2960651 16.0628945 11.685213 15.7877358 11.0743609 15.5125772 10.2846675 15.2209135 9.31610921 14.9127358 8.21547477 14.5605328 7.17814238 14.1643104 6.2040809 13.7240566 5.23001943 13.2838028 4.37704054 12.7637609 3.64511864 12.1639151 2.91319674 11.5640693 2.33537233 10.8734316 1.91162807 10.0919811 1.48788382 9.31053068 1.27601487 8.39701781 1.27601487 7.35141509 1.27601487 6.34983776 1.49338691 5.43357334 1.92813751 4.60259434 2.36288811 3.77161534 2.97373106 3.06446833 3.76068468 2.48113208 4.5476383 1.89779583 5.48316353 1.44379093 6.56728845 1.11910377 7.65141337.794416616 8.84283227.632075472 10.1415809.632075472 11.4733486.632075472 12.6840283.816428974 13.7736564 1.18514151 14.8632845 1.55385404 15.7933066 2.06839292 16.5637507 2.72877358 17.3341948 3.38915425 17.9285285 4.17334452 18.3467696 5.08136792 18.7650107 5.98939133 18.9741281 6.98269901 18.9741281 8.06132075L14.0212979 8.06132075C14.0212979 7.55502892 13.9415031 7.0872663 13.7819111 6.65801887 13.6223191 6.22877144 13.3774316 5.86006443 13.0472413 5.55188679 12.717051 5.24370915 12.3043192 5.00432475 11.8090337 4.83372642 11.3137482 4.66312808 10.7304207 4.57783019 10.0590337 4.57783019 9.40965942 4.57783019 8.84559273 4.64937035 8.36681675 4.79245283 7.88804077 4.93553531 7.49181832 5.13364653 7.17813751 5.38679245 6.86445669 5.63993837 6.62782384 5.93710521 6.46823185 6.27830189 6.30863985 6.61949856 6.22884505 6.98270248 6.22884505 7.36792453 6.22884505 8.16038132 6.63332214 8.82350362 7.44228845 9.35731132 8.25125476 9.89111902 9.43717057 10.3891486 11.0000715 10.8514151 12.3098264 11.2586498 13.4627237 11.7099032 14.4587979 12.2051887 15.454872 12.7004742 16.2858386 13.2617893 16.9517224 13.8891509 17.6176062 14.5165126 18.1211389 15.220908 18.4623356 16.0023585 18.8035323 16.7838089 18.9741281 17.6698064 18.9741281 18.6603774 18.9741281 19.7169864 18.7677622 20.6580147 18.3550243 21.4834906 17.9422864 22.3089664 17.3562073 23.0051072 16.5967696 23.571934 15.8373318 24.1387607 14.9210674 24.5735048 13.8479488 24.8761792 12.7748303 25.1788537 11.5779083 25.3301887 10.2571469 25.3301887 9.46469015 25.3301887 8.67224524 25.2614001 7.87978845 25.1238208 7.08733166 24.9862415 6.33065683 24.7743725 5.60974128 24.4882075 4.88882573 24.2020426 4.22020034 23.8443418 3.60384505 23.4150943 2.98748977 22.9858469 2.45093853 22.4795627 1.99417524 21.8962264 1.53741195 21.3128902 1.17971113 20.6497679.921062035 19.9068396.662412943 19.1639114.533090337 18.3411995.533090337 17.4386792L5.50242996 17.4386792C5.50242996 18.165098 5.61799484 18.781444 5.84912807 19.2877358 6.0802613 19.7940277 6.40219205 20.2040079 6.81492996 20.5176887 7.22766787 20.8313695 7.72569748 21.0597477 8.30903373 21.2028302 8.89236998 21.3459127 9.54173456 21.4174528 10.2571469 21.4174528 10.8955149 21.4174528 11.451327 21.3486642 11.9245998 21.2110849 12.3978726 21.0735056 12.7885919 20.883649 13.0967696 20.6415094 13.4049472 20.3993699 13.6333254 20.1104577 13.7819111 19.7747642 13.9304967 19.4390706 14.0047885 19.0786183 14.0047885 18.6933962z"/>
    </g>
  </g>
</svg>
